<mxfile host="app.diagrams.net" modified="2020-08-04T23:45:44.701Z" agent="5.0 (Windows)" etag="XHl5fHUtMBxa_2nMvQ7J" version="13.5.9" type="github">
  <diagram id="RC_DgBo5Q_odyv1U419i" name="Page-1">
    <mxGraphModel dx="2946" dy="1099" grid="1" gridSize="10" guides="1" tooltips="1" connect="1" arrows="1" fold="1" page="1" pageScale="1" pageWidth="1654" pageHeight="1169" math="0" shadow="0">
      <root>
        <mxCell id="0" />
        <mxCell id="1" parent="0" />
        <mxCell id="_b-tRirj2vvUGJ3bbZTm-1" value="UML Projeto VII" style="text;html=1;strokeColor=none;fillColor=none;align=center;verticalAlign=middle;whiteSpace=wrap;rounded=0;fontSize=48;" parent="1" vertex="1">
          <mxGeometry x="627" y="40" width="400" height="100" as="geometry" />
        </mxCell>
      </root>
    </mxGraphModel>
  </diagram>
</mxfile>
